<svg xmlns="http://www.w3.org/2000/svg" viewBox="0 0 24 24"><path d="M21.976 12.04c-.028-.815-.207-1.275-.604-1.713-.396-.438-1.027-.69-1.81-.69h-1.483c-.55 0-.943-.157-1.236-.523-.293-.367-.31-.726-.31-1.225v-.78c0-1.69-.66-3.227-1.917-4.46C13.358 1.413 11.834.74 10.144.74H7.41c-1.673 0-3.197.673-4.422 1.91C1.748 3.884 1.073 5.42 1.073 7.11v9.78c0 1.69.675 3.227 1.916 4.46 1.225 1.237 2.749 1.91 4.422 1.91h9.179c1.673 0 3.197-.673 4.422-1.91 1.241-1.233 1.916-2.77 1.916-4.46zM7.7 6.7h3.61c.633 0 1.157.525 1.157 1.158 0 .633-.524 1.157-1.158 1.157H7.7c-.633 0-1.157-.524-1.157-1.157 0-.633.524-1.158 1.157-1.158zm8.6 10.6H7.7c-.633 0-1.157-.524-1.157-1.158 0-.633.524-1.157 1.157-1.157h8.6c.633 0 1.158.524 1.158 1.157 0 .634-.525 1.158-1.158 1.158z"/></svg>
