<svg width="20" height="20" viewBox="0 0 20 20" fill="none" xmlns="http://www.w3.org/2000/svg">
<path d="M13.24 19.34C12.96 19.34 12.6933 19.2733 12.44 19.14C12.2267 19.02 12.0467 18.86 11.9 18.66C11.7667 18.46 11.68 18.2467 11.64 18.02C11.6 17.7933 11.4933 17.62 11.32 17.5C11.1467 17.38 10.9533 17.3267 10.74 17.34C10.2467 17.4067 9.75333 17.4067 9.26 17.34C9.04667 17.3267 8.85333 17.38 8.68 17.5C8.50667 17.62 8.4 17.7933 8.36 18.02C8.32 18.2467 8.22667 18.46 8.08 18.66C7.94667 18.86 7.77333 19.02 7.56 19.14C7.34667 19.26 7.11333 19.3267 6.86 19.34C6.60667 19.3533 6.36 19.3067 6.12 19.2C5.33333 18.8667 4.61333 18.4533 3.96 17.96C3.76 17.8133 3.6 17.6267 3.48 17.4C3.37333 17.1733 3.31333 16.94 3.3 16.7C3.3 16.4467 3.35333 16.2067 3.46 15.98C3.56667 15.7533 3.71333 15.56 3.9 15.4C4.06 15.2667 4.14667 15.1 4.16 14.9C4.18667 14.7 4.14 14.5067 4.02 14.32C3.76667 13.9867 3.51333 13.5533 3.26 13.02C3.18 12.82 3.04 12.68 2.84 12.6C2.65333 12.52 2.46 12.5133 2.26 12.58C2.03333 12.6733 1.79333 12.7067 1.54 12.68C1.3 12.6533 1.07333 12.58 0.86 12.46C0.646667 12.3267 0.466667 12.16 0.32 11.96C0.186667 11.7467 0.106667 11.5133 0.08 11.26C0.0266667 10.8867 0 10.4667 0 10C0 9.53333 0.0266667 9.11333 0.08 8.74C0.106667 8.48667 0.186667 8.26 0.32 8.06C0.466667 7.84667 0.646667 7.68 0.86 7.56C1.07333 7.42667 1.3 7.34667 1.54 7.32C1.79333 7.29333 2.03333 7.32667 2.26 7.42C2.46 7.48667 2.65333 7.48 2.84 7.4C3.04 7.30667 3.18 7.16667 3.26 6.98C3.51333 6.44667 3.76667 6.01333 4.02 5.68C4.15333 5.50667 4.20667 5.32 4.18 5.12C4.15333 4.90667 4.06 4.72667 3.9 4.58C3.71333 4.43333 3.56667 4.24667 3.46 4.02C3.35333 3.79333 3.3 3.56 3.3 3.32C3.31333 3.06667 3.37333 2.82667 3.48 2.6C3.6 2.37333 3.76 2.18667 3.96 2.04C4.61333 1.54667 5.33333 1.13333 6.12 0.799999C6.34667 0.693333 6.58667 0.646666 6.84 0.659999C7.10667 0.673333 7.34667 0.739999 7.56 0.859999C7.77333 0.979999 7.94667 1.14 8.08 1.34C8.22667 1.54 8.32 1.75333 8.36 1.98C8.4 2.20667 8.50667 2.38 8.68 2.5C8.85333 2.62 9.04667 2.67333 9.26 2.66C9.75333 2.59333 10.2467 2.59333 10.74 2.66C10.9533 2.67333 11.1467 2.62 11.32 2.5C11.4933 2.38 11.6 2.20667 11.64 1.98C11.68 1.75333 11.7667 1.54 11.9 1.34C12.0467 1.14 12.2267 0.979999 12.44 0.859999C12.6533 0.739999 12.8867 0.673333 13.14 0.659999C13.4067 0.646666 13.6533 0.693333 13.88 0.799999C14.6667 1.13333 15.3867 1.54667 16.04 2.04C16.24 2.18667 16.3933 2.37333 16.5 2.6C16.62 2.82667 16.68 3.06667 16.68 3.32C16.6933 3.56 16.6467 3.79333 16.54 4.02C16.4333 4.24667 16.2867 4.43333 16.1 4.58C15.94 4.71333 15.8467 4.88667 15.82 5.1C15.8067 5.3 15.8667 5.49333 16 5.68C16.3067 6.12 16.5533 6.55333 16.74 6.98C16.8333 7.16667 16.9733 7.30667 17.16 7.4C17.36 7.48 17.5533 7.48667 17.74 7.42C17.9667 7.32667 18.2 7.29333 18.44 7.32C18.6933 7.34667 18.9267 7.42667 19.14 7.56C19.3533 7.68 19.5267 7.84667 19.66 8.06C19.8067 8.26 19.8933 8.48667 19.92 8.74C19.9733 9.11333 20 9.53333 20 10C20 10.4667 19.9733 10.8867 19.92 11.26C19.8933 11.5133 19.8067 11.7467 19.66 11.96C19.5267 12.16 19.3533 12.3267 19.14 12.46C18.9267 12.58 18.6933 12.6533 18.44 12.68C18.2 12.7067 17.9667 12.6733 17.74 12.58C17.5533 12.5133 17.36 12.52 17.16 12.6C16.96 12.68 16.82 12.82 16.74 13.02C16.4867 13.5533 16.2333 13.9867 15.98 14.32C15.86 14.5067 15.8067 14.7 15.82 14.9C15.8467 15.1 15.94 15.2667 16.1 15.4C16.2867 15.56 16.4333 15.7533 16.54 15.98C16.6467 16.2067 16.6933 16.4467 16.68 16.7C16.68 16.94 16.62 17.1733 16.5 17.4C16.3933 17.6267 16.24 17.8133 16.04 17.96C15.3867 18.4533 14.6667 18.8667 13.88 19.2C13.6933 19.2933 13.48 19.34 13.24 19.34ZM10.84 16.5C11.24 16.5 11.5933 16.6267 11.9 16.88C12.2067 17.1333 12.3933 17.46 12.46 17.86C12.5 18.1133 12.6267 18.2933 12.84 18.4C13.08 18.5333 13.32 18.5467 13.56 18.44C14.2667 18.1333 14.9267 17.7533 15.54 17.3C15.7533 17.1267 15.86 16.92 15.86 16.68C15.86 16.56 15.8333 16.4467 15.78 16.34C15.74 16.22 15.6733 16.1267 15.58 16.06C15.2467 15.78 15.0533 15.4333 15 15.02C14.9467 14.5933 15.0467 14.2067 15.3 13.86C15.5533 13.5133 15.78 13.12 15.98 12.68C16.1533 12.2933 16.4333 12.0133 16.82 11.84C17.22 11.6667 17.62 11.6533 18.02 11.8C18.26 11.88 18.4933 11.86 18.72 11.74C18.9333 11.5933 19.06 11.3933 19.1 11.14C19.14 10.7533 19.16 10.3733 19.16 10C19.16 9.61333 19.14 9.23333 19.1 8.86C19.06 8.59333 18.9267 8.4 18.7 8.28C18.4867 8.14667 18.2667 8.12 18.04 8.2C17.64 8.34667 17.24 8.33333 16.84 8.16C16.44 7.98667 16.1533 7.70667 15.98 7.32C15.78 6.88 15.5533 6.48667 15.3 6.14C15.0467 5.79333 14.9467 5.41333 15 5C15.0533 4.57333 15.2467 4.22 15.58 3.94C15.6733 3.87333 15.74 3.78667 15.78 3.68C15.8333 3.56 15.86 3.44 15.86 3.32C15.86 3.08 15.7533 2.87333 15.54 2.7C14.9267 2.23333 14.2667 1.85333 13.56 1.56C13.32 1.45333 13.08 1.46667 12.84 1.6C12.7467 1.65333 12.6667 1.72667 12.6 1.82C12.5333 1.91333 12.4867 2.02 12.46 2.14C12.3933 2.56667 12.1867 2.91333 11.84 3.18C11.4933 3.43333 11.1 3.54 10.66 3.5C10.22 3.44667 9.78 3.44667 9.34 3.5C8.9 3.54 8.50667 3.43333 8.16 3.18C7.81333 2.91333 7.60667 2.56667 7.54 2.14C7.51333 2.02 7.46667 1.91333 7.4 1.82C7.33333 1.72667 7.25333 1.65333 7.16 1.6C6.92 1.46667 6.68 1.45333 6.44 1.56C5.74667 1.85333 5.08667 2.23333 4.46 2.7C4.27333 2.84667 4.16667 3.05333 4.14 3.32C4.14 3.44 4.16 3.56 4.2 3.68C4.25333 3.78667 4.32667 3.87333 4.42 3.94C4.75333 4.22 4.94667 4.57333 5 5C5.05333 5.41333 4.94667 5.8 4.68 6.16C4.4 6.58667 4.18 6.97333 4.02 7.32C3.84667 7.70667 3.56 7.98667 3.16 8.16C2.77333 8.33333 2.38 8.34667 1.98 8.2C1.72667 8.12 1.49333 8.14 1.28 8.26C1.06667 8.38 0.94 8.58 0.9 8.86C0.86 9.23333 0.84 9.61333 0.84 10C0.84 10.3733 0.86 10.7533 0.9 11.14C0.94 11.3933 1.06667 11.5867 1.28 11.72C1.50667 11.8533 1.73333 11.88 1.96 11.8C2.37333 11.6533 2.77333 11.6667 3.16 11.84C3.56 12 3.84667 12.2733 4.02 12.66C4.19333 13.0467 4.41333 13.4267 4.68 13.8C4.94667 14.1733 5.05333 14.5733 5 15C4.94667 15.4267 4.75333 15.78 4.42 16.06C4.23333 16.2067 4.14667 16.4133 4.16 16.68C4.17333 16.9333 4.27333 17.14 4.46 17.3C5.08667 17.7533 5.74667 18.1333 6.44 18.44C6.68 18.5467 6.91333 18.5333 7.14 18.4C7.36667 18.28 7.5 18.1 7.54 17.86C7.60667 17.4333 7.81333 17.0933 8.16 16.84C8.50667 16.5733 8.9 16.4667 9.34 16.52C9.78 16.56 10.22 16.56 10.66 16.52L10.84 16.5ZM10 14.16C9.24 14.16 8.54 13.9733 7.9 13.6C7.27333 13.2267 6.77333 12.7267 6.4 12.1C6.02667 11.46 5.84 10.76 5.84 10C5.84 9.24 6.02667 8.54667 6.4 7.92C6.77333 7.28 7.27333 6.77333 7.9 6.4C8.54 6.02667 9.24 5.84 10 5.84C10.76 5.84 11.4533 6.02667 12.08 6.4C12.72 6.77333 13.2267 7.28 13.6 7.92C13.9733 8.54667 14.16 9.24 14.16 10C14.16 10.76 13.9733 11.46 13.6 12.1C13.2267 12.7267 12.72 13.2267 12.08 13.6C11.4533 13.9733 10.76 14.16 10 14.16ZM10 6.66C9.4 6.66 8.84 6.81333 8.32 7.12C7.81333 7.41333 7.40667 7.82 7.1 8.34C6.80667 8.84667 6.66 9.4 6.66 10C6.66 10.6 6.80667 11.16 7.1 11.68C7.40667 12.1867 7.81333 12.5933 8.32 12.9C8.84 13.1933 9.4 13.34 10 13.34C10.6 13.34 11.1533 13.1933 11.66 12.9C12.18 12.5933 12.5867 12.1867 12.88 11.68C13.1867 11.16 13.34 10.6 13.34 10C13.34 9.4 13.1867 8.84667 12.88 8.34C12.5867 7.82 12.18 7.41333 11.66 7.12C11.1533 6.81333 10.6 6.66 10 6.66Z" fill="#2B303B"/>
</svg>
